<svg width="33" height="14" viewBox="0 0 33 14" fill="none" xmlns="http://www.w3.org/2000/svg">
<path d="M5.2666 0.723145C5.90853 0.723145 6.51725 0.842122 7.09277 1.08008C7.66829 1.3125 8.17741 1.67773 8.62012 2.17578C9.06836 2.66829 9.41976 3.30192 9.67432 4.07666C9.92887 4.84587 10.0562 5.77279 10.0562 6.85742V6.87402C10.0562 8.21875 9.86247 9.36979 9.4751 10.3271C9.08773 11.2845 8.53158 12.0205 7.80664 12.5352C7.08724 13.0443 6.22673 13.2988 5.2251 13.2988C4.4891 13.2988 3.82503 13.166 3.23291 12.9004C2.64632 12.6292 2.15934 12.2585 1.77197 11.7881C1.39014 11.3122 1.13281 10.7699 1 10.1611L0.983398 10.0698H3.0835L3.1167 10.1528C3.22184 10.4295 3.37126 10.673 3.56494 10.8833C3.76416 11.0936 4.00212 11.2568 4.27881 11.373C4.56104 11.4837 4.87646 11.5391 5.2251 11.5391C5.85596 11.5391 6.37061 11.3537 6.76904 10.9829C7.17301 10.6066 7.47461 10.1058 7.67383 9.48047C7.87858 8.84961 7.99479 8.15234 8.02246 7.38867C8.02799 7.30566 8.03076 7.22542 8.03076 7.14795C8.03076 7.06494 8.03076 6.9847 8.03076 6.90723L7.65723 4.90674C7.65723 4.45296 7.55208 4.04069 7.3418 3.66992C7.13151 3.29915 6.84652 3.00586 6.48682 2.79004C6.13265 2.57422 5.73145 2.46631 5.2832 2.46631C4.85156 2.46631 4.45589 2.57145 4.09619 2.78174C3.73649 2.99202 3.44873 3.27979 3.23291 3.64502C3.01709 4.00472 2.90918 4.40869 2.90918 4.85693V4.87354C2.90918 5.33838 3.01156 5.75065 3.21631 6.11035C3.42106 6.46452 3.70052 6.74398 4.05469 6.94873C4.40885 7.15348 4.81283 7.25586 5.2666 7.25586C5.72038 7.25586 6.12712 7.15625 6.48682 6.95703C6.84652 6.75781 7.13151 6.48112 7.3418 6.12695C7.55208 5.77279 7.65723 5.37158 7.65723 4.92334V4.90674H8.15527V7.11475H7.86475C7.72087 7.43018 7.50781 7.72347 7.22559 7.99463C6.94336 8.26579 6.59473 8.48438 6.17969 8.65039C5.77018 8.81641 5.28874 8.89941 4.73535 8.89941C3.97168 8.89941 3.29655 8.72786 2.70996 8.38477C2.12337 8.04167 1.6613 7.57129 1.32373 6.97363C0.991699 6.37598 0.825684 5.70085 0.825684 4.94824V4.93164C0.825684 4.11816 1.01383 3.396 1.39014 2.76514C1.77197 2.12874 2.29769 1.6307 2.96729 1.271C3.64242 0.905762 4.40885 0.723145 5.2666 0.723145ZM13.3247 11.3896C12.9484 11.3896 12.633 11.2651 12.3784 11.0161C12.1294 10.7616 12.0049 10.4517 12.0049 10.0864C12.0049 9.71566 12.1294 9.40576 12.3784 9.15674C12.633 8.90218 12.9484 8.7749 13.3247 8.7749C13.7065 8.7749 14.022 8.90218 14.271 9.15674C14.52 9.40576 14.6445 9.71566 14.6445 10.0864C14.6445 10.4517 14.52 10.7616 14.271 11.0161C14.022 11.2651 13.7065 11.3896 13.3247 11.3896ZM13.3247 5.23047C12.9484 5.23047 12.633 5.10596 12.3784 4.85693C12.1294 4.60238 12.0049 4.29248 12.0049 3.92725C12.0049 3.55648 12.1294 3.24658 12.3784 2.99756C12.633 2.743 12.9484 2.61572 13.3247 2.61572C13.7065 2.61572 14.022 2.743 14.271 2.99756C14.52 3.24658 14.6445 3.55648 14.6445 3.92725C14.6445 4.29248 14.52 4.60238 14.271 4.85693C14.022 5.10596 13.7065 5.23047 13.3247 5.23047ZM22.4038 13V10.7007H16.5435V8.94922C16.8589 8.41243 17.1743 7.87288 17.4897 7.33057C17.8107 6.78825 18.1344 6.2487 18.4609 5.71191C18.793 5.1696 19.1222 4.63558 19.4487 4.10986C19.7808 3.57861 20.11 3.05566 20.4365 2.54102C20.7686 2.02083 21.1006 1.51449 21.4326 1.02197H24.4458V8.93262H26.0645V10.7007H24.4458V13H22.4038ZM18.5356 8.98242H22.437V2.73193H22.3125C22.069 3.10824 21.8172 3.49561 21.5571 3.89404C21.3026 4.29248 21.0452 4.69922 20.7852 5.11426C20.5251 5.5293 20.2677 5.9471 20.0132 6.36768C19.7586 6.78271 19.5068 7.20052 19.2578 7.62109C19.0088 8.03613 18.7681 8.4484 18.5356 8.85791V8.98242ZM30.52 13V3.13037H30.3706L27.3906 5.23047V3.22168L30.52 1.02197H32.6533V13H30.52Z" fill="#DEE4E0"/>
</svg>
