<svg width="44" height="44" viewBox="0 0 44 44" fill="none" xmlns="http://www.w3.org/2000/svg">
<path d="M10.93 31.18C12.46 30.01 14.17 29.0875 16.06 28.4125C17.95 27.7375 19.93 27.4 22 27.4C24.07 27.4 26.05 27.7375 27.94 28.4125C29.83 29.0875 31.54 30.01 33.07 31.18C34.12 29.95 34.9375 28.555 35.5225 26.995C36.1075 25.435 36.4 23.77 36.4 22C36.4 18.01 34.9975 14.6125 32.1925 11.8075C29.3875 9.0025 25.99 7.6 22 7.6C18.01 7.6 14.6125 9.0025 11.8075 11.8075C9.0025 14.6125 7.6 18.01 7.6 22C7.6 23.77 7.8925 25.435 8.4775 26.995C9.0625 28.555 9.88 29.95 10.93 31.18ZM22 23.8C20.23 23.8 18.7375 23.1925 17.5225 21.9775C16.3075 20.7625 15.7 19.27 15.7 17.5C15.7 15.73 16.3075 14.2375 17.5225 13.0225C18.7375 11.8075 20.23 11.2 22 11.2C23.77 11.2 25.2625 11.8075 26.4775 13.0225C27.6925 14.2375 28.3 15.73 28.3 17.5C28.3 19.27 27.6925 20.7625 26.4775 21.9775C25.2625 23.1925 23.77 23.8 22 23.8ZM22 40C19.51 40 17.17 39.5275 14.98 38.5825C12.79 37.6375 10.885 36.355 9.265 34.735C7.645 33.115 6.3625 31.21 5.4175 29.02C4.4725 26.83 4 24.49 4 22C4 19.51 4.4725 17.17 5.4175 14.98C6.3625 12.79 7.645 10.885 9.265 9.265C10.885 7.645 12.79 6.3625 14.98 5.4175C17.17 4.4725 19.51 4 22 4C24.49 4 26.83 4.4725 29.02 5.4175C31.21 6.3625 33.115 7.645 34.735 9.265C36.355 10.885 37.6375 12.79 38.5825 14.98C39.5275 17.17 40 19.51 40 22C40 24.49 39.5275 26.83 38.5825 29.02C37.6375 31.21 36.355 33.115 34.735 34.735C33.115 36.355 31.21 37.6375 29.02 38.5825C26.83 39.5275 24.49 40 22 40ZM22 36.4C23.59 36.4 25.09 36.1675 26.5 35.7025C27.91 35.2375 29.2 34.57 30.37 33.7C29.2 32.83 27.91 32.1625 26.5 31.6975C25.09 31.2325 23.59 31 22 31C20.41 31 18.91 31.2325 17.5 31.6975C16.09 32.1625 14.8 32.83 13.63 33.7C14.8 34.57 16.09 35.2375 17.5 35.7025C18.91 36.1675 20.41 36.4 22 36.4ZM22 20.2C22.78 20.2 23.425 19.945 23.935 19.435C24.445 18.925 24.7 18.28 24.7 17.5C24.7 16.72 24.445 16.075 23.935 15.565C23.425 15.055 22.78 14.8 22 14.8C21.22 14.8 20.575 15.055 20.065 15.565C19.555 16.075 19.3 16.72 19.3 17.5C19.3 18.28 19.555 18.925 20.065 19.435C20.575 19.945 21.22 20.2 22 20.2Z" fill="#DEE4E0"/>
</svg>