<svg width="28" height="26" viewBox="0 0 44 41" fill="none" xmlns="http://www.w3.org/2000/svg">
<path d="M39.8248 34.5433C39.8248 35.7914 38.8183 36.8032 37.5766 36.8032C36.335 36.8032 35.3285 35.7914 35.3285 34.5433C35.3285 33.2952 36.335 32.2835 37.5766 32.2835C38.8183 32.2835 39.8248 33.2952 39.8248 34.5433Z" fill="#86D6BE"/>
<path d="M42.8759 41C43.4967 41 44 40.4941 44 39.8701C44 39.246 43.4967 38.7402 42.8759 38.7402C42.2551 38.7402 41.7518 39.246 41.7518 39.8701C41.7518 40.4941 42.2551 41 42.8759 41Z" fill="#86D6BE"/>
<path d="M12.4651 27.4409L27.7306 23.8036C28.1594 23.7003 28.481 23.4617 28.6954 23.0877C28.9098 22.7135 28.9599 22.3331 28.8454 21.9461C28.731 21.5592 28.481 21.269 28.0951 21.0755C27.7091 20.8819 27.3017 20.8369 26.8729 20.94L22.6706 21.9461L15.8098 16.1417L13.4085 16.6834L17.525 23.1844L13.4085 24.1132L11.2645 22.6427L9.63504 23.0296L12.4651 27.4409Z" fill="#00382C"/>
<path fill-rule="evenodd" clip-rule="evenodd" d="M11.3078 31.7455C9.0752 31.7455 7.16771 30.9686 5.58529 29.4149C4.00286 27.8613 3.21165 25.9625 3.21165 23.7183C3.21165 21.7947 3.78819 20.0808 4.94128 18.5766C6.09435 17.0721 7.60318 16.1104 9.46774 15.6912C10.0811 13.4224 11.3078 11.5851 13.1478 10.1794C14.9878 8.77376 17.0731 8.07092 19.4038 8.07092C22.2743 8.07092 24.7092 9.07585 26.7088 11.0857C28.7082 13.0956 29.708 15.5432 29.708 18.4285C31.4009 18.6258 32.8054 19.3594 33.9216 20.6295C35.038 21.8995 35.5962 23.3853 35.5962 25.087C35.5962 26.9365 34.9521 28.5087 33.664 29.8034C32.376 31.0982 30.812 31.7455 28.9721 31.7455H11.3078ZM27.7306 23.8036L12.4651 27.4409L9.63505 23.0296L11.2645 22.6427L13.4085 24.1132L17.525 23.1844L13.4085 16.6834L15.8098 16.1417L22.6706 21.9461L26.8729 20.94C27.3017 20.8369 27.7091 20.8819 28.0951 21.0755C28.481 21.269 28.731 21.5592 28.8454 21.9461C28.9599 22.3331 28.9098 22.7135 28.6954 23.0877C28.481 23.4617 28.1594 23.7003 27.7306 23.8036Z" fill="#86D6BE"/>
</svg>
