<svg width="24" height="24" viewBox="0 0 24 24" fill="none" xmlns="http://www.w3.org/2000/svg">
<path d="M19.2893 20C19.1882 20 19.087 19.9564 19.0083 19.8692L15.2926 15.6781H6.90562C5.85444 15.6781 5 14.7316 5 13.567V3.11111C5 1.94657 5.85444 1 6.90562 1H22.0944C23.1456 1 24 1.94657 24 3.11111V13.567C24 14.7316 23.1456 15.6781 22.0944 15.6781H19.6885V19.5578C19.6885 19.7322 19.5929 19.8941 19.4411 19.9626C19.3905 19.9875 19.3399 19.9938 19.2893 19.9938V20ZM6.9 1.87185C6.28166 1.87185 5.78136 2.42609 5.78136 3.11111V13.567C5.78136 14.252 6.28166 14.8063 6.9 14.8063H15.4556C15.5624 14.8063 15.6636 14.8561 15.7367 14.9371L18.8959 18.4992V15.2484C18.8959 15.0056 19.0701 14.8125 19.2893 14.8125H22.0888C22.7071 14.8125 23.2074 14.2583 23.2074 13.5733V3.11111C23.2074 2.42609 22.7071 1.87185 22.0888 1.87185H6.9Z" fill="#86D6BE"/>
<path d="M3.21001 23C3.16589 23 3.11625 22.9938 3.07213 22.9692C2.92321 22.9076 2.82393 22.7474 2.82393 22.5687V19.8451H1.40093C0.628765 19.8451 0 19.1426 0 18.2799V10.5651C0 9.70246 0.628765 9 1.40093 9H11.5991C12.3712 9 13 9.70246 13 10.5651V18.2799C13 19.1426 12.3712 19.8451 11.5991 19.8451H5.89054L3.49682 22.8521C3.4196 22.9445 3.31481 23 3.21001 23ZM1.40093 9.86268C1.05346 9.86268 0.772168 10.1769 0.772168 10.5651V18.2799C0.772168 18.6681 1.05346 18.9824 1.40093 18.9824H3.21001C3.42512 18.9824 3.5961 19.1734 3.5961 19.4137V21.4349L5.42724 19.1303C5.49894 19.0379 5.60373 18.9824 5.71404 18.9824H11.5991C11.9465 18.9824 12.2278 18.6681 12.2278 18.2799V10.5651C12.2278 10.1769 11.9465 9.86268 11.5991 9.86268H1.40093Z" fill="#86D6BE"/>
</svg>
