<svg width="24" height="24" viewBox="0 0 24 24" fill="none" xmlns="http://www.w3.org/2000/svg">
<path d="M12.0014 13.9947C11.3619 13.9947 10.7225 13.7622 10.2266 13.2972L3.11857 6.65525C2.97956 6.52315 2.96103 6.29066 3.07224 6.13742C3.18345 5.98418 3.39196 5.95776 3.52634 6.08458L10.6344 12.7318C11.399 13.4452 12.5991 13.4452 13.3637 12.7318L20.4717 6.08458C20.6107 5.95248 20.8146 5.9789 20.9258 6.13742C21.0417 6.29594 21.0185 6.52844 20.8795 6.65525L13.7714 13.3025C13.2756 13.7675 12.6362 14 11.9967 14L12.0014 13.9947Z" fill="#86D6BE"/>
<path d="M20.6755 18C20.6009 18 20.531 17.9761 20.4703 17.9236L14.1193 12.5901C13.9794 12.4707 13.9608 12.2607 14.0727 12.1222C14.1846 11.9789 14.3944 11.9598 14.5297 12.0744L20.8807 17.4079C21.0206 17.5273 21.0392 17.7374 20.9273 17.8759C20.862 17.957 20.7688 18 20.6755 18Z" fill="#86D6BE"/>
<path d="M3.32626 18C3.23305 18 3.13984 17.957 3.0746 17.8759C2.95809 17.7327 2.98139 17.5227 3.1212 17.4081L9.46868 12.0764C9.60849 11.9571 9.81355 11.9809 9.9254 12.1241C10.0419 12.2673 10.0186 12.4774 9.8788 12.5919L3.53132 17.9236C3.47073 17.9761 3.39617 18 3.32626 18Z" fill="#86D6BE"/>
<path d="M21.3012 20H2.69876C1.21207 20 0 18.7967 0 17.3208V6.6792C0 5.20329 1.21207 4 2.69876 4H21.3012C22.7879 4 24 5.20329 24 6.6792V17.3208C24 18.7967 22.7879 20 21.3012 20ZM2.69876 4.65805C1.57664 4.65805 0.662853 5.56522 0.662853 6.6792V17.3208C0.662853 18.4348 1.57664 19.3419 2.69876 19.3419H21.3012C22.4234 19.3419 23.3371 18.4348 23.3371 17.3208V6.6792C23.3371 5.56522 22.4234 4.65805 21.3012 4.65805H2.69876Z" fill="#86D6BE"/>
</svg>
