<svg width="45" height="44" viewBox="0 0 45 44" fill="none" xmlns="http://www.w3.org/2000/svg">
<path fill-rule="evenodd" clip-rule="evenodd" d="M36.25 0H8.75C4.19368 0 0.5 3.69368 0.5 8.25V35.75C0.5 40.3063 4.19368 44 8.75 44H36.25C40.8063 44 44.5 40.3063 44.5 35.75V8.25C44.5 3.69368 40.8063 0 36.25 0ZM35.1326 23.6963H31.0163V38.9342H24.1384V23.6963H21.4695V18.5611H24.1384V15.29C24.1384 11.0058 25.9216 8.45842 30.97 8.45842H36.0879V13.5705H33.1121C31.1437 13.5705 31.0163 14.3058 31.0163 15.6721L31.0105 18.5553H35.6884L35.1268 23.6905L35.1326 23.6963Z" fill="#86D6BE"/>
</svg>
