<svg width="24" height="24" viewBox="0 0 24 24" fill="none" xmlns="http://www.w3.org/2000/svg">
<mask id="mask0_645_5807" style="mask-type:alpha" maskUnits="userSpaceOnUse" x="0" y="0" width="24" height="24">
<path d="M9 9C11.4853 9 13.5 6.98528 13.5 4.5C13.5 2.01472 11.4853 0 9 0C6.51472 0 4.5 2.01472 4.5 4.5C4.5 6.98528 6.51472 9 9 9Z" fill="#6B6C7E"/>
<path d="M13.4998 11.5264C1.406 6.18736 -8.1565 22.2889 10.4998 20.9436V16.4998C10.4998 14.8358 11.8451 13.4905 13.4998 13.4905V11.5264Z" fill="#6B6C7E"/>
<path fill-rule="evenodd" clip-rule="evenodd" d="M16.5 12V15H22.5C23.3297 15 24 15.6703 24 16.5V22.5C24 23.3297 23.3297 24 22.5 24H13.5C12.6703 24 12 23.3297 12 22.5V16.5C12 15.6703 12.6703 15 13.5 15H15V12C15 7.94529 21 8.06248 21 12V13.5H19.5V12C19.5 9.96092 16.5 9.96092 16.5 12ZM16.5 21H19.5V18H16.5V21Z" fill="#6B6C7E"/>
</mask>
<g mask="url(#mask0_645_5807)">
<rect width="24" height="24" fill="#B2CCC2"/>
</g>
</svg>
