<svg width="24" height="24" viewBox="0 0 24 24" fill="none" xmlns="http://www.w3.org/2000/svg">
<mask id="mask0_265_3162" style="mask-type:alpha" maskUnits="userSpaceOnUse" x="0" y="0" width="24" height="24">
<rect width="24" height="24" fill="#D9D9D9"/>
</mask>
<g mask="url(#mask0_265_3162)">
<path d="M18.5 23C18.0667 23 17.6458 22.9667 17.2375 22.9C16.8292 22.8333 16.4333 22.7333 16.05 22.6L2 17.475L2.5 16.05L9.4 18.575L11.125 14.125L7.55 10.4C7.1 9.93333 6.92083 9.37917 7.0125 8.7375C7.10417 8.09583 7.43333 7.60833 8 7.275L11.475 5.275C11.7583 5.10833 12.0458 5.0125 12.3375 4.9875C12.6292 4.9625 12.9167 5.00833 13.2 5.125C13.4833 5.225 13.7292 5.38333 13.9375 5.6C14.1458 5.81667 14.3 6.075 14.4 6.375L14.725 7.45C14.9417 8.16667 15.2958 8.8 15.7875 9.35C16.2792 9.9 16.8667 10.3167 17.55 10.6L18.075 9L19.5 9.45L18.375 12.9C17.1417 12.7 16.05 12.2167 15.1 11.45C14.15 10.6833 13.45 9.73333 13 8.6L10.475 10.05L13.5 13.5L11.275 19.25L14.375 20.375L16.475 13.95C16.7083 14.0333 16.9417 14.1083 17.175 14.175C17.4083 14.2417 17.65 14.3 17.9 14.35L15.775 20.9L16.55 21.175C16.85 21.275 17.1625 21.3542 17.4875 21.4125C17.8125 21.4708 18.15 21.5 18.5 21.5C18.9333 21.5 19.3458 21.4583 19.7375 21.375C20.1292 21.2917 20.5083 21.1667 20.875 21L22 22.125C21.4667 22.4083 20.9083 22.625 20.325 22.775C19.7417 22.925 19.1333 23 18.5 23ZM16.5 6.5C15.95 6.5 15.4792 6.30417 15.0875 5.9125C14.6958 5.52083 14.5 5.05 14.5 4.5C14.5 3.95 14.6958 3.47917 15.0875 3.0875C15.4792 2.69583 15.95 2.5 16.5 2.5C17.05 2.5 17.5208 2.69583 17.9125 3.0875C18.3042 3.47917 18.5 3.95 18.5 4.5C18.5 5.05 18.3042 5.52083 17.9125 5.9125C17.5208 6.30417 17.05 6.5 16.5 6.5Z" fill="#005141"/>
</g>
</svg>
