<svg width="23" height="22" viewBox="0 0 23 22" fill="none" xmlns="http://www.w3.org/2000/svg">
<mask id="mask0_655_4268" style="mask-type:alpha" maskUnits="userSpaceOnUse" x="0" y="0" width="24" height="22">
<path d="M0.643295 4.67683L11.5004 0L22.3574 4.53927C23.2151 4.95193 23.2151 6.05236 22.3574 6.32747L11.5004 11L0.643295 6.46503C-0.214432 6.05236 -0.214432 4.95193 0.643295 4.67683Z" fill="#6B6C7E"/>
<path d="M22.4557 10.1747L19.7295 9.07425L18.0084 9.76202L20.8792 11L11.5537 14.9891L2.2296 11L5.24358 9.76202L3.37932 8.93669L0.653122 10.1747C-0.21022 10.4498 -0.21022 11.5502 0.653122 11.9629L11.5537 16.5021L22.4557 11.8296C23.1744 11.5502 23.1744 10.4498 22.4557 10.1747Z" fill="#6B6C7E"/>
<path d="M22.4515 15.6725L19.707 14.5721L17.9733 15.2599L21.0055 16.4979L11.4779 20.4869L2.09904 16.4979L5.13127 15.2599L3.39757 14.5721L0.653122 15.6725C-0.213028 15.9476 -0.213028 17.0481 0.653122 17.4607L11.4779 22L22.4473 17.3275C23.1744 17.0481 23.1744 15.9476 22.4515 15.6725Z" fill="#6B6C7E"/>
</mask>
<g mask="url(#mask0_655_4268)">
<rect width="23" height="22" fill="#B2CCC2"/>
</g>
</svg>
