<svg width="21" height="20" viewBox="0 0 21 20" fill="none" xmlns="http://www.w3.org/2000/svg">
  <mask id="mask0" mask-type="alpha" maskUnits="userSpaceOnUse" x="0" y="0" width="21" height="20">
    <path fill-rule="evenodd" clip-rule="evenodd" d="M16.3896 19.8353C16.5348 19.9216 16.696 19.9647 16.8559 19.9647H16.8681C17.3698 19.9647 17.7739 19.5568 17.7739 19.0588C17.7739 18.9059 17.7385 18.7647 17.6725 18.6392L15.3862 12.2118L20.1225 8.44312C20.4252 8.2039 20.5388 7.79998 20.413 7.43528C20.2873 7.07057 19.9431 6.82744 19.5585 6.82744H13.6686L11.3469 0.623505C11.2126 0.270569 10.8757 0.0352783 10.4997 0.0352783C10.1225 0.0352783 9.78558 0.270569 9.65252 0.623505L7.33075 6.82744H1.44452C1.06 6.82744 0.719419 7.07057 0.590025 7.43528C0.46063 7.79998 0.577818 8.2039 0.875669 8.44312L5.62054 12.2157L3.44403 18.6039C3.32318 18.9647 3.4367 19.3608 3.73089 19.6C4.02508 19.8392 4.43646 19.8706 4.76239 19.6784L10.496 16.298L16.3896 19.8353ZM10.9672 14.4667C10.822 14.3804 10.6608 14.3372 10.4997 14.3372C10.3398 14.3372 10.1823 14.3804 10.0407 14.4627L5.95135 16.8745L7.54681 12.1961C7.66888 11.8353 7.55047 11.4353 7.25262 11.1961L4.03729 8.63921H7.95941C8.33539 8.63921 8.6723 8.4039 8.80536 8.05097L10.4997 3.52548L12.194 8.05097C12.3234 8.4039 12.6652 8.63921 13.0412 8.63921H16.9633L13.7468 11.1961C13.4452 11.4353 13.3281 11.8431 13.4575 12.2078L15.1555 16.9804L10.9672 14.4667Z" fill="#FFD700"/>
  </mask>
  <g mask="url(#mask0)">
    <rect x="0.5" width="20" height="20" fill="#B2CCC2"/>
  </g>
</svg>