<svg width="45" height="44" viewBox="0 0 45 44" fill="none" xmlns="http://www.w3.org/2000/svg">
<path id="Vector" d="M22.4951 10.719C28.738 10.719 33.7736 15.7557 33.7736 22C33.7736 28.2443 28.738 33.281 22.4951 33.281C16.2521 33.281 11.2166 28.2443 11.2166 22C11.2166 15.7557 16.2521 10.719 22.4951 10.719ZM22.4951 29.3342C26.5294 29.3342 29.8276 26.0451 29.8276 22C29.8276 17.9549 26.5393 14.6658 22.4951 14.6658C18.4509 14.6658 15.1626 17.9549 15.1626 22C15.1626 26.0451 18.4607 29.3342 22.4951 29.3342ZM8.12454 10.2575C8.12454 11.7204 9.30245 12.8888 10.7552 12.8888C12.2178 12.8888 13.3859 11.7106 13.3859 10.2575C13.3859 8.80442 12.208 7.62624 10.7552 7.62624C9.30245 7.62624 8.12454 8.80442 8.12454 10.2575ZM0.654602 12.928C0.821472 9.40333 1.62638 6.28116 4.20798 3.7088C6.77975 1.13645 9.90123 0.331362 13.4252 0.154636C17.0571 -0.0515452 27.9429 -0.0515452 31.5748 0.154636C35.089 0.321544 38.2104 1.12663 40.792 3.69898C43.3736 6.27134 44.1687 9.39351 44.3454 12.9182C44.5515 16.5509 44.5515 27.4392 44.3454 31.072C44.1785 34.5967 43.3736 37.7188 40.792 40.2912C38.2104 42.8635 35.0988 43.6686 31.5748 43.8454C27.9429 44.0515 17.0571 44.0515 13.4252 43.8454C9.90123 43.6785 6.77975 42.8734 4.20798 40.2912C1.6362 37.7188 0.831287 34.5967 0.654602 31.072C0.448467 27.4392 0.448467 16.5607 0.654602 12.928ZM5.34663 34.9698C6.11227 36.8941 7.59448 38.3767 9.52822 39.1523C12.4239 40.301 19.2951 40.0359 22.4951 40.0359C25.6951 40.0359 32.5761 40.2912 35.462 39.1523C37.3859 38.3865 38.8681 36.9039 39.6436 34.9698C40.792 32.0734 40.527 25.2007 40.527 22C40.527 18.7993 40.7822 11.9168 39.6436 9.03024C38.8779 7.10588 37.3957 5.62334 35.462 4.84771C32.5663 3.69898 25.6951 3.96407 22.4951 3.96407C19.2951 3.96407 12.4141 3.7088 9.52822 4.84771C7.60429 5.61352 6.12209 7.09606 5.34663 9.03024C4.19816 11.9266 4.46319 18.7993 4.46319 22C4.46319 25.2007 4.19816 32.0832 5.34663 34.9698Z" fill="#86D6BE"/>
</svg>
