<svg width="12" height="12" viewBox="0 0 12 12" fill="none" xmlns="http://www.w3.org/2000/svg">
<path fill-rule="evenodd" clip-rule="evenodd" d="M4.25 5.25025C4.25 4.28348 5.03348 3.5 6.00025 3.5C6.96666 3.5 7.75 4.28361 7.75 5.25025C7.75 6.21652 6.96652 7 6.00025 7C5.03361 7 4.25 6.21666 4.25 5.25025ZM6.00025 4.5C5.58576 4.5 5.25 4.83576 5.25 5.25025C5.25 5.66411 5.58563 6 6.00025 6C6.41424 6 6.75 5.66424 6.75 5.25025C6.75 4.83563 6.41411 4.5 6.00025 4.5Z" fill="#86D6BE"/>
<path fill-rule="evenodd" clip-rule="evenodd" d="M5.99976 2C4.20872 2 2.75 3.46542 2.75 5.28164C2.75 6.43258 3.44079 7.62098 4.274 8.55912C4.68317 9.01981 5.1077 9.39836 5.4584 9.65778C5.6343 9.7879 5.78413 9.88248 5.89809 9.94201C5.94507 9.96655 5.97843 9.98111 5.99976 9.98963C6.0211 9.98111 6.05447 9.96655 6.10146 9.942C6.21543 9.88247 6.36528 9.78788 6.54121 9.65776C6.89196 9.39834 7.31655 9.01979 7.72578 8.55909C8.55912 7.62095 9.25 6.43255 9.25 5.28164C9.25 3.4655 7.79088 2 5.99976 2ZM1.75 5.28164C1.75 2.92122 3.64838 1 5.99976 1C8.35105 1 10.25 2.92113 10.25 5.28164C10.25 6.79828 9.36538 8.21906 8.47341 9.22321C8.01998 9.73366 7.54446 10.1595 7.13586 10.4617C6.93211 10.6124 6.73748 10.738 6.56443 10.8284C6.41567 10.9061 6.20642 11 5.99976 11C5.79308 11 5.58383 10.9061 5.43508 10.8284C5.26205 10.738 5.06743 10.6124 4.8637 10.4617C4.45515 10.1595 3.97969 9.73363 3.52632 9.22318C2.63447 8.21903 1.75 6.79825 1.75 5.28164Z" fill="#86D6BE"/>
</svg>
