<svg width="34" height="35" viewBox="0 0 34 35" fill="none" xmlns="http://www.w3.org/2000/svg">
<g clip-path="url(#clip0_659_2766)">
<path d="M21.25 16.0416H12.75C11.9676 16.0416 11.3333 16.6945 11.3333 17.5V21.875C11.3333 22.6804 11.9676 23.3333 12.75 23.3333H21.25C22.0324 23.3333 22.6667 22.6804 22.6667 21.875V17.5C22.6667 16.6945 22.0324 16.0416 21.25 16.0416Z" stroke="#005141" stroke-width="2" stroke-linecap="round" stroke-linejoin="round"/>
<path d="M14.1667 16.0417V13.125C14.1667 12.3515 14.4652 11.6096 14.9965 11.0626C15.5279 10.5157 16.2485 10.2084 17 10.2084C17.7514 10.2084 18.4721 10.5157 19.0035 11.0626C19.5348 11.6096 19.8333 12.3515 19.8333 13.125V16.0417" stroke="#005141" stroke-width="2" stroke-linecap="round" stroke-linejoin="round"/>
<path d="M25.5 5.83337H8.49999C6.93518 5.83337 5.66666 7.13921 5.66666 8.75004V26.25C5.66666 27.8609 6.93518 29.1667 8.49999 29.1667H25.5C27.0648 29.1667 28.3333 27.8609 28.3333 26.25V8.75004C28.3333 7.13921 27.0648 5.83337 25.5 5.83337Z" stroke="#005141" stroke-width="2" stroke-linecap="round" stroke-linejoin="round"/>
</g>
<defs>
<clipPath id="clip0_659_2766">
<rect width="34" height="35" fill="white"/>
</clipPath>
</defs>
</svg>
