<svg width="47" height="20" viewBox="0 0 47 20" fill="none" xmlns="http://www.w3.org/2000/svg">
<rect x="1" y="0.938751" width="45" height="18" rx="9" fill="white"/>
<rect x="1" y="0.938751" width="45" height="18" rx="9" stroke="#104B3E"/>
<rect x="2.5" y="2.43875" width="15" height="15" rx="7.5" fill="#104B3E"/>
<path d="M20.2045 13.4388V7.62057H20.9091V12.8138H23.6136V13.4388H20.2045ZM24.6136 13.4388V9.07511H25.2841V13.4388H24.6136ZM24.9545 8.34784C24.8239 8.34784 24.7112 8.30333 24.6165 8.21432C24.5237 8.1253 24.4773 8.0183 24.4773 7.8933C24.4773 7.7683 24.5237 7.66129 24.6165 7.57227C24.7112 7.48326 24.8239 7.43875 24.9545 7.43875C25.0852 7.43875 25.197 7.48326 25.2898 7.57227C25.3845 7.66129 25.4318 7.7683 25.4318 7.8933C25.4318 8.0183 25.3845 8.1253 25.2898 8.21432C25.197 8.30333 25.0852 8.34784 24.9545 8.34784ZM28.2734 15.166C27.9496 15.166 27.6712 15.1244 27.4382 15.041C27.2053 14.9596 27.0111 14.8516 26.8558 14.7172C26.7024 14.5846 26.5803 14.4425 26.4893 14.291L27.0234 13.916C27.084 13.9956 27.1607 14.0865 27.2536 14.1888C27.3464 14.2929 27.4732 14.3829 27.6342 14.4586C27.7971 14.5363 28.0102 14.5751 28.2734 14.5751C28.6257 14.5751 28.9164 14.4899 29.1456 14.3194C29.3748 14.149 29.4893 13.8819 29.4893 13.5183V12.6319H29.4325C29.3833 12.7115 29.3132 12.81 29.2223 12.9274C29.1333 13.0429 29.0045 13.1461 28.8359 13.237C28.6693 13.3261 28.4439 13.3706 28.1598 13.3706C27.8075 13.3706 27.4912 13.2872 27.2109 13.1206C26.9325 12.9539 26.7119 12.7115 26.549 12.3933C26.388 12.0751 26.3075 11.6888 26.3075 11.2342C26.3075 10.7872 26.3861 10.398 26.5433 10.0666C26.7005 9.73326 26.9193 9.47568 27.1996 9.29386C27.4799 9.11015 27.8037 9.0183 28.1712 9.0183C28.4553 9.0183 28.6806 9.06565 28.8473 9.16034C29.0159 9.25315 29.1446 9.35921 29.2337 9.47852C29.3246 9.59595 29.3946 9.69254 29.4439 9.7683H29.5121V9.07511H30.1598V13.5638C30.1598 13.9388 30.0746 14.2437 29.9041 14.4785C29.7356 14.7153 29.5083 14.8886 29.2223 14.9984C28.9382 15.1102 28.6219 15.166 28.2734 15.166ZM28.2507 12.7683C28.5196 12.7683 28.7469 12.7067 28.9325 12.5836C29.1181 12.4605 29.2592 12.2834 29.3558 12.0524C29.4524 11.8213 29.5007 11.5448 29.5007 11.2228C29.5007 10.9084 29.4534 10.631 29.3587 10.3905C29.264 10.1499 29.1238 9.96148 28.9382 9.82511C28.7526 9.68875 28.5234 9.62057 28.2507 9.62057C27.9666 9.62057 27.7299 9.69254 27.5405 9.83648C27.353 9.98042 27.2119 10.1736 27.1172 10.416C27.0244 10.6584 26.978 10.9274 26.978 11.2228C26.978 11.5259 27.0253 11.7939 27.12 12.0268C27.2166 12.2579 27.3587 12.4397 27.5462 12.5723C27.7356 12.703 27.9704 12.7683 28.2507 12.7683ZM32.0575 10.8138V13.4388H31.3871V7.62057H32.0575V9.75693H32.1143C32.2166 9.53155 32.37 9.35258 32.5746 9.22C32.781 9.08553 33.0556 9.0183 33.3984 9.0183C33.6958 9.0183 33.9562 9.07796 34.1797 9.19727C34.4032 9.3147 34.5765 9.49557 34.6996 9.73989C34.8246 9.98231 34.8871 10.291 34.8871 10.666V13.4388H34.2166V10.7115C34.2166 10.3649 34.1267 10.0969 33.9467 9.9075C33.7687 9.71621 33.5215 9.62057 33.2053 9.62057C32.9856 9.62057 32.7886 9.66697 32.6143 9.75977C32.442 9.85258 32.3056 9.98799 32.2053 10.166C32.1068 10.3441 32.0575 10.56 32.0575 10.8138ZM38.0114 9.07511V9.6433H35.75V9.07511H38.0114ZM36.4091 8.02966H37.0795V12.1888C37.0795 12.3781 37.107 12.5202 37.1619 12.6149C37.2188 12.7077 37.2907 12.7702 37.3778 12.8024C37.4669 12.8327 37.5606 12.8478 37.6591 12.8478C37.733 12.8478 37.7936 12.8441 37.8409 12.8365C37.8883 12.827 37.9261 12.8194 37.9545 12.8138L38.0909 13.416C38.0455 13.4331 37.982 13.4501 37.9006 13.4672C37.8191 13.4861 37.7159 13.4956 37.5909 13.4956C37.4015 13.4956 37.2159 13.4548 37.0341 13.3734C36.8542 13.292 36.7045 13.1679 36.5852 13.0013C36.4678 12.8346 36.4091 12.6244 36.4091 12.3706V8.02966Z" fill="#104B3E"/>
</svg>
