<svg width="17" height="16" viewBox="0 0 17 16" fill="none" xmlns="http://www.w3.org/2000/svg">
<mask id="mask0_100_12021" style="mask-type:alpha" maskUnits="userSpaceOnUse" x="0" y="0" width="17" height="16">
<path fill-rule="evenodd" clip-rule="evenodd" d="M15.2212 0.793579C14.7104 0.282471 14.0308 -6.10352e-05 13.3101 -6.10352e-05C12.5894 -6.10352e-05 11.9097 0.282471 11.3989 0.790405L0.0180664 12.1714L0.157715 15.8317L3.96436 15.8698L15.2212 4.61578C16.2749 3.56183 16.2749 1.84753 15.2212 0.793579ZM3.22412 14.0635L1.89111 14.0507L1.84619 12.892L10.5571 4.18091L11.8306 5.45392L3.22412 14.0635ZM13.1108 4.17767L13.9487 3.3396C14.2974 2.99042 14.2974 2.41895 13.9487 2.06659C13.6089 1.72693 13.0151 1.72693 12.6753 2.06659L11.8374 2.90466L13.1108 4.17767Z" fill="#6B6C7E"/>
</mask>
<g mask="url(#mask0_100_12021)">
<rect x="0.0151367" y="-6.10352e-05" width="16" height="16" fill="#B2CCC2"/>
</g>
</svg>
