<svg width="24" height="24" viewBox="0 0 24 24" fill="none" xmlns="http://www.w3.org/2000/svg">
<g clip-path="url(#clip0_540_3789)">
<path d="M15.0433 24C12.3432 24 8.83245 22.0256 5.39361 18.5868C0.451086 13.6312 -1.33371 8.49905 1.04602 6.11278C1.07217 6.08663 1.09832 6.06701 1.12447 6.0474L3.26231 4.68102C3.56958 4.39336 3.96185 4.23645 4.37372 4.23645C4.7856 4.23645 5.17133 4.39336 5.45899 4.68102C5.4786 4.70063 5.49167 4.7137 5.50475 4.73332L8.13292 8.38137C8.70824 8.99592 8.68209 9.97658 8.06754 10.5911L6.39388 12.2648C6.20429 12.4544 6.20429 12.7616 6.39388 12.9512L11.0422 17.6126C11.2253 17.7957 11.5456 17.7957 11.7287 17.6126L13.3958 15.939C13.7031 15.6317 14.1149 15.4552 14.5464 15.4552C14.9452 15.4552 15.3179 15.6056 15.6055 15.8736L19.2471 18.5083C19.2471 18.5083 19.2863 18.541 19.3059 18.5541C19.9008 19.149 19.8943 20.1297 19.3059 20.7573L17.8937 22.8624C17.8937 22.8624 17.8611 22.9082 17.8349 22.9278C17.1484 23.6208 16.1809 23.9869 15.0368 23.9869L15.0433 24ZM1.66057 6.7927C-0.50996 9.04822 2.20973 14.0953 6.04084 17.933C9.25741 21.1561 12.6178 23.0782 15.0433 23.0782C15.9324 23.0782 16.645 22.8232 17.1615 22.3198L18.5671 20.2212C18.5671 20.2212 18.5998 20.1754 18.626 20.1558C18.8875 19.8943 18.9136 19.489 18.6848 19.234L15.0498 16.6058C15.0498 16.6058 15.0106 16.5731 14.991 16.5601C14.8799 16.4489 14.7229 16.3835 14.553 16.3835C14.3634 16.3835 14.1869 16.462 14.0496 16.5993L12.3824 18.273C12.1209 18.541 11.7679 18.6848 11.3887 18.6848C11.0161 18.6848 10.663 18.541 10.395 18.273L5.74665 13.6116C5.20401 13.0689 5.20401 12.1798 5.74665 11.6372L7.4203 9.95696C7.68835 9.68892 7.70796 9.26396 7.45953 9.00899C7.43992 8.98938 7.42684 8.9763 7.41377 8.95669L4.7856 5.30864C4.67446 5.21057 4.53063 5.15173 4.37372 5.15173C4.18413 5.15173 4.00761 5.23018 3.87032 5.36748C3.84417 5.39363 3.81802 5.41324 3.79186 5.43285L1.66057 6.7927Z" fill="#86D6BE"/>
<path d="M20.705 12.6962C20.4501 12.6962 20.2474 12.4936 20.2474 12.2386C20.2474 7.55759 16.4359 3.74609 11.7549 3.74609C11.4999 3.74609 11.2972 3.54342 11.2972 3.28845C11.2972 3.03348 11.4999 2.83081 11.7549 2.83081C16.9458 2.83081 21.1627 7.05418 21.1627 12.2386C21.1627 12.4936 20.96 12.6962 20.705 12.6962Z" fill="#86D6BE"/>
<path d="M17.8807 12.6963C17.6258 12.6963 17.4231 12.4936 17.4231 12.2386C17.4231 9.11361 14.8799 6.57043 11.7549 6.57043C11.4999 6.57043 11.2972 6.36776 11.2972 6.11279C11.2972 5.85782 11.4999 5.65515 11.7549 5.65515C15.3833 5.65515 18.3384 8.6102 18.3384 12.2386C18.3384 12.4936 18.1357 12.6963 17.8807 12.6963Z" fill="#86D6BE"/>
<path d="M23.5358 12.6963C23.2808 12.6963 23.0782 12.4937 23.0782 12.2387C23.0782 5.99515 17.9983 0.921874 11.7614 0.921874C11.5064 0.921874 11.3037 0.719204 11.3037 0.464233C11.3037 0.209261 11.5064 0.0065918 11.7614 0.0065918C18.5083 0.0065918 23.9934 5.49828 23.9934 12.2387C23.9934 12.4937 23.7908 12.6963 23.5358 12.6963Z" fill="#86D6BE"/>
</g>
<defs>
<clipPath id="clip0_540_3789">
<rect width="23.9935" height="24" fill="white"/>
</clipPath>
</defs>
</svg>
