<svg width="17" height="16" viewBox="0 0 17 16" fill="none" xmlns="http://www.w3.org/2000/svg">
<mask id="mask0_100_9658" style="mask-type:alpha" maskUnits="userSpaceOnUse" x="0" y="0" width="16" height="16">
<path fill-rule="evenodd" clip-rule="evenodd" d="M12.7273 15.8682C12.8435 15.9372 12.9724 15.9717 13.1003 15.9717H13.1101C13.5115 15.9717 13.8347 15.6454 13.8347 15.247C13.8347 15.1247 13.8064 15.0117 13.7537 14.9113L11.9246 9.76938L15.7136 6.75447C15.9558 6.5631 16.0466 6.23996 15.946 5.9482C15.8455 5.65643 15.5701 5.46193 15.2624 5.46193H10.5505L8.69311 0.498779C8.58569 0.216431 8.31616 0.0281982 8.01538 0.0281982C7.71362 0.0281982 7.44409 0.216431 7.33765 0.498779L5.48022 5.46193H0.771239C0.463621 5.46193 0.191161 5.65643 0.0876449 5.9482C-0.0158707 6.23996 0.0778793 6.5631 0.316161 6.75447L4.11206 9.77251L2.37085 14.8831C2.27417 15.1717 2.36499 15.4886 2.60034 15.68C2.83569 15.8713 3.16479 15.8964 3.42554 15.7427L8.01245 13.0384L12.7273 15.8682ZM8.3894 11.5733C8.27319 11.5043 8.14429 11.4698 8.01538 11.4698C7.88745 11.4698 7.76147 11.5043 7.64819 11.5702L4.37671 13.4996L5.65307 9.75684C5.75073 9.4682 5.656 9.14821 5.41772 8.95683L2.84546 6.91135H5.98315C6.28393 6.91135 6.55347 6.7231 6.65991 6.44075L8.01538 2.82036L9.37085 6.44075C9.47436 6.7231 9.7478 6.91135 10.0486 6.91135H13.1863L10.613 8.95683C10.3718 9.14821 10.2781 9.47447 10.3816 9.76624L11.74 13.5843L8.3894 11.5733Z" fill="#6B6C7E"/>
</mask>
<g mask="url(#mask0_100_9658)">
<rect x="0.015625" width="16" height="16" fill="#B2CCC2"/>
</g>
</svg>
