<svg width="21" height="21" viewBox="0 0 21 21" fill="none" xmlns="http://www.w3.org/2000/svg">
<g clip-path="url(#clip0_647_5877)">
<path d="M3 5.16675H4.66667H18" stroke="#00382C" stroke-width="2" stroke-linecap="round" stroke-linejoin="round"/>
<path d="M16.3333 5.16671V16.8334C16.3333 17.2754 16.1577 17.6993 15.8452 18.0119C15.5326 18.3244 15.1087 18.5 14.6667 18.5H6.33334C5.89131 18.5 5.46739 18.3244 5.15483 18.0119C4.84227 17.6993 4.66667 17.2754 4.66667 16.8334V5.16671M7.16667 5.16671V3.50004C7.16667 3.05801 7.34227 2.63409 7.65483 2.32153C7.96739 2.00897 8.39131 1.83337 8.83334 1.83337H12.1667C12.6087 1.83337 13.0326 2.00897 13.3452 2.32153C13.6577 2.63409 13.8333 3.05801 13.8333 3.50004V5.16671" stroke="#00382C" stroke-width="2" stroke-linecap="round" stroke-linejoin="round"/>
<path d="M8.83333 9.33337V14.3334" stroke="#00382C" stroke-width="2" stroke-linecap="round" stroke-linejoin="round"/>
<path d="M12.1667 9.33337V14.3334" stroke="#00382C" stroke-width="2" stroke-linecap="round" stroke-linejoin="round"/>
</g>
<defs>
<clipPath id="clip0_647_5877">
<rect width="20" height="20" fill="white" transform="translate(0.5 0.166748)"/>
</clipPath>
</defs>
</svg>
