<svg width="25" height="23" viewBox="0 0 25 23" fill="none" xmlns="http://www.w3.org/2000/svg">
<path fill-rule="evenodd" clip-rule="evenodd" d="M9.51598 13.0823L7.64404 10.8878L9.01822 10.4812C9.26761 10.4076 9.54143 10.4417 9.75722 10.5736L10.9502 11.2998L13.8197 10.1859L10.822 6.83709L13.2629 6.37933L17.2053 9.10164L21.4092 7.62425C22.4384 7.26253 23.5743 7.86749 23.6894 8.83865V8.83865C23.7667 9.4831 23.3565 10.097 22.6786 10.3501L15.143 13.1631C14.9496 13.2349 14.744 13.2744 14.5343 13.2789L10.2041 13.374C9.93434 13.3821 9.67783 13.2726 9.51598 13.0823Z" stroke="#B2CCC2" stroke-width="1.4" stroke-linecap="round" stroke-linejoin="round"/>
<path d="M20.6803 7.90339C19.2094 5.35521 16.2147 3.60587 12.7507 3.60587C7.83424 3.60587 3.84912 7.12161 3.84912 11.4595C3.84912 15.7965 7.83424 19.3132 12.7507 19.3132C17.6673 19.3132 21.6524 15.7974 21.6524 11.4595C21.6524 11.2253 21.6351 10.9955 21.6127 10.7666" stroke="#B2CCC2" stroke-width="1.4" stroke-linecap="round" stroke-linejoin="round"/>
<path d="M3.86965 11.9864C1.97226 13.2134 0.945192 14.575 1.40325 15.5264C2.05268 16.9445 5.71716 16.9759 9.58827 15.5964" stroke="#B2CCC2" stroke-width="1.4" stroke-linecap="round" stroke-linejoin="round"/>
</svg>
