<svg width="25" height="23" viewBox="0 0 25 23" fill="none" xmlns="http://www.w3.org/2000/svg">
<path d="M20.6448 11.0292C20.6448 6.81514 16.7717 3.39992 11.9926 3.39992C7.21348 3.39992 3.34033 6.81514 3.34033 11.0292C3.34033 15.2432 7.21348 18.6585 11.9926 18.6585" stroke="#B2CCC2" stroke-width="1.5" stroke-linecap="round" stroke-linejoin="round"/>
<path d="M19.9019 18.0032L21.6628 19.556" stroke="#B2CCC2" stroke-width="1.5" stroke-linecap="round" stroke-linejoin="round"/>
<path d="M19.8994 14.8278C20.8932 15.7041 20.8932 17.1249 19.8994 18.0012C18.9056 18.8775 17.2943 18.8775 16.3005 18.0012C15.3067 17.1249 15.3067 15.7041 16.3005 14.8278C17.2943 13.9515 18.9056 13.9515 19.8994 14.8278" stroke="#B2CCC2" stroke-width="1.5" stroke-linecap="round" stroke-linejoin="round"/>
<path d="M4.24316 14.4229H4.3022C7.18594 14.4229 9.10878 14.2775 9.10878 11.8801C9.10878 9.33729 11.9925 9.33729 11.9925 7.64179C11.9925 5.74614 8.14685 5.9463 8.14685 4.25081V4.18977" stroke="#B2CCC2" stroke-width="1.5" stroke-linecap="round" stroke-linejoin="round"/>
<path d="M20.6446 11.0292H17.5216C15.3789 11.0292 14.2419 8.79695 15.665 7.38419L17.7323 5.33237" stroke="#B2CCC2" stroke-width="1.5" stroke-linecap="round" stroke-linejoin="round"/>
</svg>
